# xmcd CD database file
#
# Track frame offsets:
#	150
#	1070
#	10632
#	27967
#	43277
#	64205
#	77335
#	94547
#	113785
#	134765
#	151597
#	167715
#	179912
#	201660
#
# Disc length: 2880 seconds
#
# Revision: 0
# Processed by: cddbd v1.5.2PL0 Copyright (c) Steve Scherf et al.
# Submitted via: CDex 1.51
#
DISCID=b20b3e0e
DTITLE=Les Stroud - Les Stroud
DYEAR=2000
DGENRE=Blues
TTITLE0=Kelly
TTITLE1=Delta Snow
TTITLE2=Great Blue Sky
TTITLE3=Blue Soul
TTITLE4=Clouds
TTITLE5=The Cockroach
TTITLE6=Mojo
TTITLE7=All Restless Souls
TTITLE8=Snowshoes and Solitude
TTITLE9=Blues Don't Bring Me Comfort
TTITLE10=The 60's Are Dead
TTITLE11=Don't Touch It
TTITLE12=Ride On
TTITLE13=Free To Be
EXTD=YEAR: 2000
EXTT0=
EXTT1=
EXTT2=
EXTT3=
EXTT4=
EXTT5=
EXTT6=
EXTT7=
EXTT8=
EXTT9=
EXTT10=
EXTT11=
EXTT12=
EXTT13=
PLAYORDER=
